<svg xmlns="http://www.w3.org/2000/svg" version="1.1" xmlns:xlink="http://www.w3.org/1999/xlink" width="64" height="64"><svg xmlns="http://www.w3.org/2000/svg" viewBox="0 0 64 64" width="64" height="64">
  <!-- Hexagon background -->
  <polygon points="32,4 58,20 58,44 32,60 6,44 6,20" fill="#3c4f38" stroke="#dbc88a" stroke-width="2.5"></polygon>
  
  <!-- Bee body -->
  <path d="M32,20 Q40,20 40,32 Q40,44 32,44 Q24,44 24,32 Q24,20 32,20 Z" fill="black"></path>
  
  <!-- Yellow stripes -->
  <path d="M25,28 H39 V31 H25 Z" fill="#ffeb3b"></path>
  <path d="M24.4,36 H39.6 V39 H24.4 Z" fill="#ffeb3b"></path>
  
  <!-- Wings -->
  <ellipse cx="24" cy="29" rx="7.5" ry="5" fill="white" stroke="black" stroke-width="1" transform="rotate(-15,24,29)"></ellipse>
  <ellipse cx="40" cy="29" rx="7.5" ry="5" fill="white" stroke="black" stroke-width="1" transform="rotate(15,40,29)"></ellipse>
  
  <!-- Antennae -->
  <path d="M28,20 Q27,17 26,16" fill="none" stroke="black" stroke-width="2" stroke-linecap="round"></path>
  <path d="M36,20 Q37,17 38,16" fill="none" stroke="black" stroke-width="2" stroke-linecap="round"></path>
  
  <!-- Stinger -->
  <path d="M32,44 L32,47" stroke="black" stroke-width="2" stroke-linecap="round"></path>
</svg><style>@media (prefers-color-scheme: light) { :root { filter: none; } }
@media (prefers-color-scheme: dark) { :root { filter: none; } }
</style></svg>